{
    "asset" : {
        "generator" : "Khronos glTF Blender I/O v1.8.19",
        "version" : "2.0"
    },
    "scene" : 0,
    "scenes" : [
        {
            "name" : "Scene",
            "nodes" : [
                0,
                1,
                2,
                3,
                4,
                5
            ]
        }
    ],
    "nodes" : [
        {
            "mesh" : 0,
            "name" : "Text.001",
            "rotation" : [
                0.707062304019928,
                -0.02026985026896,
                0.007931120693683624,
                0.7068161964416504
            ],
            "translation" : [
                -0.0026987437158823013,
                -0.0060918815433979034,
                -0.060705624520778656
            ]
        },
        {
            "mesh" : 1,
            "name" : "Cube",
            "scale" : [
                0,
                0,
                0
            ]
        },
        {
            "mesh" : 2,
            "name" : "Cube.001",
            "scale" : [
                0,
                0,
                0
            ]
        },
        {
            "mesh" : 3,
            "name" : "Cube.002",
            "scale" : [
                0,
                0,
                0
            ]
        },
        {
            "mesh" : 4,
            "name" : "Cube.003",
            "scale" : [
                0,
                0,
                0
            ]
        },
        {
            "mesh" : 5,
            "name" : "Cube.004",
            "scale" : [
                0,
                0,
                0
            ]
        }
    ],
    "animations" : [
        {
            "channels" : [
                {
                    "sampler" : 0,
                    "target" : {
                        "node" : 1,
                        "path" : "translation"
                    }
                },
                {
                    "sampler" : 1,
                    "target" : {
                        "node" : 1,
                        "path" : "scale"
                    }
                }
            ],
            "name" : "CubeAction",
            "samplers" : [
                {
                    "input" : 20,
                    "interpolation" : "LINEAR",
                    "output" : 21
                },
                {
                    "input" : 20,
                    "interpolation" : "LINEAR",
                    "output" : 22
                }
            ]
        },
        {
            "channels" : [
                {
                    "sampler" : 0,
                    "target" : {
                        "node" : 2,
                        "path" : "translation"
                    }
                },
                {
                    "sampler" : 1,
                    "target" : {
                        "node" : 2,
                        "path" : "scale"
                    }
                }
            ],
            "name" : "Cube.001Action",
            "samplers" : [
                {
                    "input" : 20,
                    "interpolation" : "LINEAR",
                    "output" : 23
                },
                {
                    "input" : 20,
                    "interpolation" : "LINEAR",
                    "output" : 24
                }
            ]
        },
        {
            "channels" : [
                {
                    "sampler" : 0,
                    "target" : {
                        "node" : 3,
                        "path" : "translation"
                    }
                },
                {
                    "sampler" : 1,
                    "target" : {
                        "node" : 3,
                        "path" : "scale"
                    }
                }
            ],
            "name" : "Cube.002Action",
            "samplers" : [
                {
                    "input" : 20,
                    "interpolation" : "LINEAR",
                    "output" : 25
                },
                {
                    "input" : 20,
                    "interpolation" : "LINEAR",
                    "output" : 26
                }
            ]
        },
        {
            "channels" : [
                {
                    "sampler" : 0,
                    "target" : {
                        "node" : 4,
                        "path" : "translation"
                    }
                },
                {
                    "sampler" : 1,
                    "target" : {
                        "node" : 4,
                        "path" : "scale"
                    }
                }
            ],
            "name" : "Cube.003Action",
            "samplers" : [
                {
                    "input" : 20,
                    "interpolation" : "LINEAR",
                    "output" : 27
                },
                {
                    "input" : 20,
                    "interpolation" : "LINEAR",
                    "output" : 28
                }
            ]
        },
        {
            "channels" : [
                {
                    "sampler" : 0,
                    "target" : {
                        "node" : 5,
                        "path" : "translation"
                    }
                },
                {
                    "sampler" : 1,
                    "target" : {
                        "node" : 5,
                        "path" : "scale"
                    }
                }
            ],
            "name" : "Cube.004Action",
            "samplers" : [
                {
                    "input" : 20,
                    "interpolation" : "LINEAR",
                    "output" : 29
                },
                {
                    "input" : 20,
                    "interpolation" : "LINEAR",
                    "output" : 30
                }
            ]
        }
    ],
    "materials" : [
        {
            "doubleSided" : true,
            "name" : "Material.001",
            "pbrMetallicRoughness" : {
                "baseColorFactor" : [
                    0.8000000715255737,
                    0.14505890011787415,
                    0.7534875273704529,
                    1
                ],
                "metallicFactor" : 0.39455777406692505,
                "roughnessFactor" : 0.48843541741371155
            }
        },
        {
            "doubleSided" : true,
            "name" : "Material.002",
            "pbrMetallicRoughness" : {
                "baseColorFactor" : [
                    0.8000000715255737,
                    0.7181258201599121,
                    0,
                    1
                ],
                "metallicFactor" : 0,
                "roughnessFactor" : 0.5236220359802246
            }
        }
    ],
    "meshes" : [
        {
            "name" : "Text.001",
            "primitives" : [
                {
                    "attributes" : {
                        "POSITION" : 0,
                        "NORMAL" : 1,
                        "TEXCOORD_0" : 2
                    },
                    "indices" : 3,
                    "material" : 0
                }
            ]
        },
        {
            "name" : "Cube.001",
            "primitives" : [
                {
                    "attributes" : {
                        "POSITION" : 4,
                        "NORMAL" : 5,
                        "TEXCOORD_0" : 6
                    },
                    "indices" : 7,
                    "material" : 1
                }
            ]
        },
        {
            "name" : "Cube.002",
            "primitives" : [
                {
                    "attributes" : {
                        "POSITION" : 8,
                        "NORMAL" : 9,
                        "TEXCOORD_0" : 10
                    },
                    "indices" : 7,
                    "material" : 1
                }
            ]
        },
        {
            "name" : "Cube.003",
            "primitives" : [
                {
                    "attributes" : {
                        "POSITION" : 11,
                        "NORMAL" : 12,
                        "TEXCOORD_0" : 13
                    },
                    "indices" : 7,
                    "material" : 1
                }
            ]
        },
        {
            "name" : "Cube.004",
            "primitives" : [
                {
                    "attributes" : {
                        "POSITION" : 14,
                        "NORMAL" : 15,
                        "TEXCOORD_0" : 16
                    },
                    "indices" : 7,
                    "material" : 1
                }
            ]
        },
        {
            "name" : "Cube.005",
            "primitives" : [
                {
                    "attributes" : {
                        "POSITION" : 17,
                        "NORMAL" : 18,
                        "TEXCOORD_0" : 19
                    },
                    "indices" : 7,
                    "material" : 1
                }
            ]
        }
    ],
    "accessors" : [
        {
            "bufferView" : 0,
            "componentType" : 5126,
            "count" : 8888,
            "max" : [
                2.703000068664551,
                0.20000000298023224,
                0.019010070711374283
            ],
            "min" : [
                0.037979744374752045,
                -0.20000000298023224,
                -0.7010060548782349
            ],
            "type" : "VEC3"
        },
        {
            "bufferView" : 1,
            "componentType" : 5126,
            "count" : 8888,
            "type" : "VEC3"
        },
        {
            "bufferView" : 2,
            "componentType" : 5126,
            "count" : 8888,
            "type" : "VEC2"
        },
        {
            "bufferView" : 3,
            "componentType" : 5123,
            "count" : 38292,
            "type" : "SCALAR"
        },
        {
            "bufferView" : 4,
            "componentType" : 5126,
            "count" : 4765,
            "max" : [
                1.6250488758087158,
                1.344873070716858,
                0.2875843048095703
            ],
            "min" : [
                -1.6250488758087158,
                -1.3991749286651611,
                -0.2875843048095703
            ],
            "type" : "VEC3"
        },
        {
            "bufferView" : 5,
            "componentType" : 5126,
            "count" : 4765,
            "type" : "VEC3"
        },
        {
            "bufferView" : 6,
            "componentType" : 5126,
            "count" : 4765,
            "type" : "VEC2"
        },
        {
            "bufferView" : 7,
            "componentType" : 5123,
            "count" : 7488,
            "type" : "SCALAR"
        },
        {
            "bufferView" : 8,
            "componentType" : 5126,
            "count" : 4765,
            "max" : [
                1.6250488758087158,
                1.344873070716858,
                0.2875843048095703
            ],
            "min" : [
                -1.6250488758087158,
                -1.3991749286651611,
                -0.2875843048095703
            ],
            "type" : "VEC3"
        },
        {
            "bufferView" : 9,
            "componentType" : 5126,
            "count" : 4765,
            "type" : "VEC3"
        },
        {
            "bufferView" : 10,
            "componentType" : 5126,
            "count" : 4765,
            "type" : "VEC2"
        },
        {
            "bufferView" : 11,
            "componentType" : 5126,
            "count" : 4765,
            "max" : [
                1.6250488758087158,
                1.344873070716858,
                0.2875843048095703
            ],
            "min" : [
                -1.6250488758087158,
                -1.3991749286651611,
                -0.2875843048095703
            ],
            "type" : "VEC3"
        },
        {
            "bufferView" : 12,
            "componentType" : 5126,
            "count" : 4765,
            "type" : "VEC3"
        },
        {
            "bufferView" : 13,
            "componentType" : 5126,
            "count" : 4765,
            "type" : "VEC2"
        },
        {
            "bufferView" : 14,
            "componentType" : 5126,
            "count" : 4765,
            "max" : [
                1.6250488758087158,
                1.344873070716858,
                0.2875843048095703
            ],
            "min" : [
                -1.6250488758087158,
                -1.3991749286651611,
                -0.2875843048095703
            ],
            "type" : "VEC3"
        },
        {
            "bufferView" : 15,
            "componentType" : 5126,
            "count" : 4765,
            "type" : "VEC3"
        },
        {
            "bufferView" : 16,
            "componentType" : 5126,
            "count" : 4765,
            "type" : "VEC2"
        },
        {
            "bufferView" : 17,
            "componentType" : 5126,
            "count" : 4765,
            "max" : [
                1.6250488758087158,
                1.344873070716858,
                0.2875843048095703
            ],
            "min" : [
                -1.6250488758087158,
                -1.3991749286651611,
                -0.2875843048095703
            ],
            "type" : "VEC3"
        },
        {
            "bufferView" : 18,
            "componentType" : 5126,
            "count" : 4765,
            "type" : "VEC3"
        },
        {
            "bufferView" : 19,
            "componentType" : 5126,
            "count" : 4765,
            "type" : "VEC2"
        },
        {
            "bufferView" : 20,
            "componentType" : 5126,
            "count" : 61,
            "max" : [
                2.9166666666666665
            ],
            "min" : [
                0.4166666666666667
            ],
            "type" : "SCALAR"
        },
        {
            "bufferView" : 21,
            "componentType" : 5126,
            "count" : 61,
            "type" : "VEC3"
        },
        {
            "bufferView" : 22,
            "componentType" : 5126,
            "count" : 61,
            "type" : "VEC3"
        },
        {
            "bufferView" : 23,
            "componentType" : 5126,
            "count" : 61,
            "type" : "VEC3"
        },
        {
            "bufferView" : 24,
            "componentType" : 5126,
            "count" : 61,
            "type" : "VEC3"
        },
        {
            "bufferView" : 25,
            "componentType" : 5126,
            "count" : 61,
            "type" : "VEC3"
        },
        {
            "bufferView" : 26,
            "componentType" : 5126,
            "count" : 61,
            "type" : "VEC3"
        },
        {
            "bufferView" : 27,
            "componentType" : 5126,
            "count" : 61,
            "type" : "VEC3"
        },
        {
            "bufferView" : 28,
            "componentType" : 5126,
            "count" : 61,
            "type" : "VEC3"
        },
        {
            "bufferView" : 29,
            "componentType" : 5126,
            "count" : 61,
            "type" : "VEC3"
        },
        {
            "bufferView" : 30,
            "componentType" : 5126,
            "count" : 61,
            "type" : "VEC3"
        }
    ],
    "bufferViews" : [
        {
            "buffer" : 0,
            "byteLength" : 106656,
            "byteOffset" : 0
        },
        {
            "buffer" : 0,
            "byteLength" : 106656,
            "byteOffset" : 106656
        },
        {
            "buffer" : 0,
            "byteLength" : 71104,
            "byteOffset" : 213312
        },
        {
            "buffer" : 0,
            "byteLength" : 76584,
            "byteOffset" : 284416
        },
        {
            "buffer" : 0,
            "byteLength" : 57180,
            "byteOffset" : 361000
        },
        {
            "buffer" : 0,
            "byteLength" : 57180,
            "byteOffset" : 418180
        },
        {
            "buffer" : 0,
            "byteLength" : 38120,
            "byteOffset" : 475360
        },
        {
            "buffer" : 0,
            "byteLength" : 14976,
            "byteOffset" : 513480
        },
        {
            "buffer" : 0,
            "byteLength" : 57180,
            "byteOffset" : 528456
        },
        {
            "buffer" : 0,
            "byteLength" : 57180,
            "byteOffset" : 585636
        },
        {
            "buffer" : 0,
            "byteLength" : 38120,
            "byteOffset" : 642816
        },
        {
            "buffer" : 0,
            "byteLength" : 57180,
            "byteOffset" : 680936
        },
        {
            "buffer" : 0,
            "byteLength" : 57180,
            "byteOffset" : 738116
        },
        {
            "buffer" : 0,
            "byteLength" : 38120,
            "byteOffset" : 795296
        },
        {
            "buffer" : 0,
            "byteLength" : 57180,
            "byteOffset" : 833416
        },
        {
            "buffer" : 0,
            "byteLength" : 57180,
            "byteOffset" : 890596
        },
        {
            "buffer" : 0,
            "byteLength" : 38120,
            "byteOffset" : 947776
        },
        {
            "buffer" : 0,
            "byteLength" : 57180,
            "byteOffset" : 985896
        },
        {
            "buffer" : 0,
            "byteLength" : 57180,
            "byteOffset" : 1043076
        },
        {
            "buffer" : 0,
            "byteLength" : 38120,
            "byteOffset" : 1100256
        },
        {
            "buffer" : 0,
            "byteLength" : 244,
            "byteOffset" : 1138376
        },
        {
            "buffer" : 0,
            "byteLength" : 732,
            "byteOffset" : 1138620
        },
        {
            "buffer" : 0,
            "byteLength" : 732,
            "byteOffset" : 1139352
        },
        {
            "buffer" : 0,
            "byteLength" : 732,
            "byteOffset" : 1140084
        },
        {
            "buffer" : 0,
            "byteLength" : 732,
            "byteOffset" : 1140816
        },
        {
            "buffer" : 0,
            "byteLength" : 732,
            "byteOffset" : 1141548
        },
        {
            "buffer" : 0,
            "byteLength" : 732,
            "byteOffset" : 1142280
        },
        {
            "buffer" : 0,
            "byteLength" : 732,
            "byteOffset" : 1143012
        },
        {
            "buffer" : 0,
            "byteLength" : 732,
            "byteOffset" : 1143744
        },
        {
            "buffer" : 0,
            "byteLength" : 732,
            "byteOffset" : 1144476
        },
        {
            "buffer" : 0,
            "byteLength" : 732,
            "byteOffset" : 1145208
        }
    ],
    "buffers" : [
        {
            "byteLength" : 1145940,
            "uri" : "data:application/octet-stream;base64,"
        }
    ]
}
